<?xml version="1.0" standalone="no"?>
<!DOCTYPE svg PUBLIC "-//W3C//DTD SVG 20010904//EN"
 "http://www.w3.org/TR/2001/REC-SVG-20010904/DTD/svg10.dtd">
<svg version="1.0" xmlns="http://www.w3.org/2000/svg"
 width="512.000000pt" height="512.000000pt" viewBox="0 0 512.000000 512.000000"
 preserveAspectRatio="xMidYMid meet">

<g transform="translate(0.000000,512.000000) scale(0.100000,-0.100000)"
fill="#ffffff" stroke="none">
<path d="M545 4673 c-78 -41 -115 -103 -115 -193 0 -89 37 -152 110 -190 28
-14 66 -19 195 -22 139 -3 165 -7 200 -25 45 -24 66 -44 89 -89 8 -18 101
-375 206 -795 105 -420 193 -771 195 -779 4 -13 -13 -19 -82 -32 -230 -44
-416 -208 -496 -437 -27 -76 -31 -100 -31 -201 -1 -121 10 -172 59 -270 106
-212 345 -360 582 -360 40 0 73 -3 73 -6 0 -3 -7 -34 -16 -68 -20 -75 -23
-222 -5 -296 56 -230 229 -397 476 -460 95 -24 226 -26 310 -5 92 23 199 80
264 141 127 117 190 261 199 449 4 99 -4 176 -23 228 -7 16 9 17 250 17 241 0
257 -1 250 -17 -23 -59 -37 -165 -32 -248 10 -163 84 -317 201 -421 65 -57
188 -118 290 -144 481 -121 877 301 751 803 -7 26 -6 27 31 27 128 0 213 83
214 208 0 90 -37 154 -115 195 l-40 22 -1560 5 c-1449 5 -1562 6 -1591 22
-138 76 -138 300 0 376 29 16 123 17 1236 22 1341 7 1236 1 1390 76 103 51
213 161 263 264 29 59 80 238 232 820 107 410 195 761 195 781 0 19 -12 60
-27 89 -23 44 -37 59 -78 80 l-49 25 -1558 3 -1557 2 -37 78 c-73 152 -237
283 -409 327 -86 22 -398 21 -440 -2z m3655 -838 c0 -14 -282 -1134 -291
-1157 -16 -40 -82 -95 -127 -108 -27 -7 -340 -9 -973 -8 l-933 3 -158 630
c-86 347 -158 633 -158 638 0 4 594 7 1320 7 726 0 1320 -2 1320 -5z m-1995
-2566 c63 -18 120 -82 134 -150 17 -83 0 -141 -59 -199 -58 -59 -116 -76 -199
-59 -158 32 -217 243 -101 359 55 55 138 73 225 49z m1707 1 c82 -23 137 -102
138 -198 0 -130 -86 -215 -217 -216 -121 0 -203 84 -203 208 1 158 125 249
282 206z"/>
</g>
</svg>
