<?xml version="1.0" standalone="no"?>
<!DOCTYPE svg PUBLIC "-//W3C//DTD SVG 20010904//EN"
 "http://www.w3.org/TR/2001/REC-SVG-20010904/DTD/svg10.dtd">
<svg version="1.0" xmlns="http://www.w3.org/2000/svg"
 width="512.000000pt" height="512.000000pt" viewBox="0 0 512.000000 512.000000"
 preserveAspectRatio="xMidYMid meet">

<g transform="translate(0.000000,512.000000) scale(0.100000,-0.100000)"
fill="#ffffff" stroke="none">
<path d="M2780 4943 c-179 -62 -272 -272 -191 -432 12 -24 21 -44 19 -45 -2
-2 -41 -8 -88 -15 -289 -43 -588 -167 -817 -340 -106 -80 -264 -246 -340 -358
-73 -106 -148 -249 -193 -365 -33 -86 -90 -295 -90 -329 0 -19 28 -19 1800
-19 1772 0 1800 0 1800 19 0 44 -62 254 -108 367 -144 355 -399 643 -733 827
-160 88 -406 169 -599 198 -47 7 -86 13 -88 15 -2 1 7 22 19 46 19 35 23 59
24 128 0 79 -3 90 -36 150 -76 138 -236 203 -379 153z"/>
<path d="M823 2854 c-24 -24 -25 -30 -20 -91 13 -139 96 -257 225 -321 l76
-37 1776 0 1776 0 76 38 c128 63 212 182 225 320 5 61 4 67 -20 91 l-26 26
-2031 0 -2031 0 -26 -26z"/>
<path d="M1335 2161 c-50 -43 -148 -138 -220 -210 l-130 -131 417 -417 417
-417 124 121 c100 98 135 125 183 144 l59 24 675 5 c463 4 685 9 707 17 111
39 156 75 426 342 311 308 322 324 322 456 0 57 -5 89 -18 113 l-18 32 -277 0
-277 0 -160 -160 -160 -160 -115 0 -116 0 -26 -54 c-58 -117 -182 -216 -313
-251 -74 -19 -668 -22 -709 -4 -35 16 -52 61 -37 98 7 15 22 33 34 39 15 8
135 13 352 14 315 3 332 4 377 25 61 28 127 95 157 158 31 65 35 177 8 248
l-19 47 -787 0 -787 0 -89 -79z"/>
<path d="M423 1577 c-243 -242 -263 -265 -263 -297 0 -33 34 -69 543 -577 508
-509 544 -543 577 -543 32 0 55 20 297 263 243 242 263 265 263 297 0 33 -34
69 -543 577 -508 509 -544 543 -577 543 -32 0 -55 -20 -297 -263z"/>
</g>
</svg>
