<?xml version="1.0" standalone="no"?>
<!DOCTYPE svg PUBLIC "-//W3C//DTD SVG 20010904//EN"
 "http://www.w3.org/TR/2001/REC-SVG-20010904/DTD/svg10.dtd">
<svg version="1.0" xmlns="http://www.w3.org/2000/svg"
 width="512.000000pt" height="512.000000pt" viewBox="0 0 512.000000 512.000000"
 preserveAspectRatio="xMidYMid meet">

<g transform="translate(0.000000,512.000000) scale(0.100000,-0.100000)"
fill="#ffffff" stroke="none">
<path d="M2435 3987 c-27 -5 -470 -160 -985 -344 -1062 -379 -1000 -351 -1008
-462 -5 -65 16 -114 61 -143 12 -8 192 -75 399 -149 l377 -134 3 -560 3 -560
27 -57 c34 -73 99 -137 173 -173 150 -71 452 -154 695 -192 163 -25 597 -25
760 0 243 38 546 122 698 194 72 34 137 99 170 171 l27 57 3 560 3 560 233 83
c128 45 235 82 239 82 4 0 7 -85 7 -189 l0 -189 -29 -10 c-16 -6 -47 -27 -69
-47 -76 -68 -78 -78 -133 -567 -31 -269 -49 -469 -46 -508 7 -109 70 -204 172
-258 47 -25 58 -27 185 -27 127 0 138 2 185 27 102 54 165 149 172 258 3 39
-15 239 -46 508 -55 489 -57 499 -133 567 -22 20 -53 41 -69 47 l-29 10 2 221
3 220 55 21 c79 30 96 42 119 80 39 62 25 151 -31 203 -28 27 -1861 685 -1954
702 -70 13 -171 12 -239 -2z m1145 -481 c503 -179 922 -329 930 -332 9 -4 -13
-16 -55 -31 l-70 -24 -835 72 -835 72 -37 38 c-83 85 -207 69 -259 -33 -53
-103 24 -228 140 -228 43 0 63 9 123 52 13 9 145 1 635 -41 340 -29 635 -56
657 -59 35 -6 -22 -29 -630 -247 l-669 -240 -115 0 -115 1 -923 330 c-639 229
-918 333 -905 338 66 27 1833 655 1853 659 14 3 63 4 110 3 83 -3 104 -10
1000 -330z m-1663 -980 c252 -90 482 -168 511 -175 73 -15 205 -14 277 4 33 7
262 86 509 174 247 89 453 161 458 161 4 0 8 -226 8 -502 0 -466 -2 -506 -19
-543 -10 -23 -32 -52 -49 -66 -55 -47 -322 -135 -541 -179 -479 -95 -952 -58
-1419 112 -126 45 -166 73 -193 133 -17 37 -19 77 -19 543 0 294 4 502 9 502
5 0 215 -74 468 -164z m2528 -142 c19 -9 40 -29 48 -47 18 -39 111 -874 104
-928 -12 -89 -73 -129 -197 -129 -124 0 -185 40 -197 129 -7 54 86 889 104
928 14 29 61 62 91 63 8 0 29 -7 47 -16z"/>
</g>
</svg>
