<?xml version="1.0" standalone="no"?>
<!DOCTYPE svg PUBLIC "-//W3C//DTD SVG 20010904//EN"
 "http://www.w3.org/TR/2001/REC-SVG-20010904/DTD/svg10.dtd">
<svg version="1.0" xmlns="http://www.w3.org/2000/svg"
 width="512.000000pt" height="512.000000pt" viewBox="0 0 512.000000 512.000000"
 preserveAspectRatio="xMidYMid meet">

<g transform="translate(0.000000,512.000000) scale(0.100000,-0.100000)"
fill="#ffffff" stroke="none">
<path d="M1298 4186 c-1151 -863 -1247 -937 -1268 -980 -42 -89 -37 -162 20
-247 60 -91 193 -129 286 -83 22 11 503 368 1069 795 567 427 1046 784 1065
794 53 27 136 24 191 -7 24 -13 505 -372 1069 -798 564 -425 1041 -779 1060
-788 50 -21 138 -19 186 6 125 64 175 208 113 327 -24 47 -102 108 -1269 983
-684 512 -1251 932 -1260 932 -9 0 -577 -420 -1262 -934z"/>
<path d="M4100 4521 l0 -329 213 -159 c116 -87 218 -162 225 -167 9 -6 12 95
12 488 l0 496 -225 0 -225 0 0 -329z"/>
<path d="M1555 3571 l-980 -738 -3 -1324 c-2 -1013 0 -1334 9 -1368 16 -56 71
-112 125 -129 60 -18 3648 -18 3708 0 54 17 109 73 125 129 9 34 11 355 9
1368 l-3 1324 -326 246 c-180 135 -621 468 -981 739 -454 341 -661 492 -678
492 -17 0 -330 -230 -1005 -739z m1303 -685 c306 -77 580 -262 749 -508 145
-210 218 -428 230 -684 19 -425 -169 -823 -512 -1082 -92 -69 -302 -174 -407
-202 -246 -66 -476 -66 -718 0 -104 29 -300 126 -396 197 -282 210 -465 519
-515 872 -14 103 -6 317 16 421 79 363 305 674 620 852 133 76 300 134 454
158 31 5 128 7 216 5 130 -3 179 -8 263 -29z"/>
<path d="M2396 2739 c-346 -50 -667 -283 -825 -599 -187 -370 -153 -806 88
-1147 28 -40 53 -73 55 -73 2 0 20 27 41 61 104 169 264 305 447 379 l57 23
-63 67 c-97 103 -146 220 -146 350 0 174 88 337 234 432 164 106 388 106 552
0 271 -176 313 -543 89 -781 l-63 -67 76 -34 c172 -77 314 -197 412 -347 29
-45 56 -80 60 -78 4 2 31 38 59 80 233 337 265 771 82 1133 -216 426 -683 670
-1155 601z"/>
<path d="M2433 2119 c-70 -27 -145 -100 -180 -174 -37 -80 -40 -204 -6 -277
79 -171 283 -250 450 -174 73 33 144 103 176 174 34 73 31 197 -6 277 -36 76
-110 147 -183 175 -72 27 -180 26 -251 -1z"/>
<path d="M2410 1246 c-179 -39 -340 -135 -444 -265 -53 -65 -116 -168 -116
-188 0 -18 145 -112 243 -158 50 -24 137 -56 192 -71 91 -25 116 -27 275 -27
159 0 184 2 275 27 55 15 142 47 192 71 101 48 243 141 243 159 0 34 -106 180
-184 253 -92 87 -215 157 -331 188 -85 22 -264 28 -345 11z"/>
</g>
</svg>
