<?xml version="1.0" standalone="no"?>
<!DOCTYPE svg PUBLIC "-//W3C//DTD SVG 20010904//EN"
 "http://www.w3.org/TR/2001/REC-SVG-20010904/DTD/svg10.dtd">
<svg version="1.0" xmlns="http://www.w3.org/2000/svg"
 width="512.000000pt" height="512.000000pt" viewBox="0 0 512.000000 512.000000"
 preserveAspectRatio="xMidYMid meet">

<g transform="translate(0.000000,512.000000) scale(0.100000,-0.100000)"
fill="#ffffff" stroke="none">
<path d="M1371 4697 c-14 -6 -34 -27 -44 -45 -20 -33 -20 -34 2 -114 12 -44
21 -81 19 -83 -2 -2 -46 -20 -98 -40 -689 -271 -1159 -888 -1239 -1627 -6 -54
-11 -127 -11 -162 0 -58 3 -69 29 -98 23 -26 37 -33 68 -33 34 0 49 8 99 54
32 29 79 64 103 79 114 67 269 96 386 72 135 -28 134 -29 210 38 79 70 158
115 240 137 75 19 220 19 295 0 72 -19 89 -13 168 57 58 52 127 97 135 88 3
-3 82 -295 177 -650 95 -355 175 -652 177 -661 4 -14 -21 -17 -214 -22 -426
-12 -732 -64 -1113 -189 -281 -92 -672 -273 -734 -340 -24 -27 -27 -36 -23
-72 7 -51 44 -86 92 -86 22 0 84 26 187 79 404 210 802 332 1258 387 129 16
591 26 604 14 3 -3 26 -82 51 -175 39 -146 50 -174 75 -197 34 -31 67 -35 110
-13 34 18 50 43 50 80 0 22 -52 233 -68 274 -6 17 62 11 233 -20 587 -108
1158 -373 1612 -749 l78 -65 -2110 -5 c-1166 -3 -2118 -9 -2128 -14 -23 -11
-47 -58 -47 -92 0 -16 12 -38 34 -60 l34 -34 2492 0 2492 0 34 34 c37 37 43
70 20 115 -25 47 -49 51 -292 51 l-225 0 -97 88 c-403 366 -858 631 -1382 805
-207 69 -531 140 -746 163 l-60 6 -183 682 c-100 374 -185 691 -188 704 -5 21
-2 22 48 22 30 0 81 -7 114 -15 98 -23 107 -21 182 45 74 65 179 122 258 141
68 15 207 13 279 -5 73 -18 91 -12 162 53 104 95 208 139 349 148 64 4 110 1
158 -11 94 -22 104 -21 143 18 48 48 45 75 -20 179 -76 121 -136 197 -246 311
-341 354 -771 556 -1270 596 -133 11 -346 1 -450 -20 -91 -18 -97 -16 -110 43
-20 83 -36 115 -69 131 -36 19 -58 20 -90 3z m1015 -407 c213 -53 441 -162
619 -295 85 -63 259 -231 314 -302 l33 -43 -37 0 c-99 0 -295 -66 -384 -129
l-29 -21 -48 87 c-147 271 -361 525 -572 681 -79 59 -81 61 -45 55 21 -3 88
-18 149 -33z m-501 -32 c257 -84 536 -340 744 -683 33 -55 59 -100 58 -101 -1
-1 -45 -7 -97 -13 -112 -14 -223 -49 -304 -97 -32 -19 -62 -31 -66 -27 -4 4
-22 51 -40 103 -87 251 -245 591 -353 763 -63 99 -66 96 58 55z m-316 -44 c66
-72 136 -185 221 -359 63 -130 210 -486 225 -546 l6 -26 -93 -6 c-127 -9 -273
-54 -348 -107 -34 -24 -32 -29 -55 110 -41 238 -56 386 -62 590 -7 255 10 400
46 400 5 0 32 -25 60 -56z m-285 -679 c10 -71 28 -195 42 -274 13 -80 24 -151
24 -158 0 -10 -22 -13 -88 -13 -107 0 -219 -26 -314 -74 l-68 -34 0 114 c0
415 125 795 334 1012 l41 43 6 -243 c3 -134 14 -301 23 -373z m-437 378 c-35
-69 -90 -231 -115 -338 -35 -148 -52 -315 -52 -498 l0 -172 -108 -1 c-114 -1
-194 -18 -289 -59 -31 -14 -57 -25 -59 -25 -19 0 25 207 73 344 89 256 222
465 425 670 76 76 141 136 144 133 3 -3 -6 -27 -19 -54z"/>
<path d="M4321 3336 c-38 -21 -50 -54 -51 -139 0 -77 1 -80 34 -113 25 -24 43
-34 66 -34 23 0 42 10 66 34 33 33 34 37 34 110 0 87 -13 122 -51 142 -34 17
-67 17 -98 0z"/>
<path d="M3690 2969 c-38 -15 -59 -39 -66 -74 -9 -51 17 -89 89 -130 100 -55
165 -44 188 34 16 54 -6 91 -79 134 -69 40 -99 48 -132 36z"/>
<path d="M4996 2973 c-10 -3 -45 -21 -78 -40 -72 -42 -96 -84 -78 -138 24 -72
91 -83 185 -30 75 42 85 53 92 103 4 33 1 44 -23 70 -29 30 -64 43 -98 35z"/>
<path d="M4246 2880 c-285 -101 -367 -450 -155 -662 90 -90 223 -132 346 -109
264 49 405 323 291 568 -34 73 -131 165 -203 193 -87 33 -202 37 -279 10z
m236 -216 c23 -16 52 -49 66 -74 31 -59 26 -142 -12 -200 -35 -53 -120 -94
-181 -88 -152 18 -234 190 -148 312 63 89 187 112 275 50z"/>
<path d="M3734 2249 c-32 -17 -69 -40 -81 -52 -31 -28 -39 -77 -19 -115 34
-65 91 -69 188 -12 56 34 69 47 79 79 15 50 -8 96 -56 117 -45 18 -43 19 -111
-17z"/>
<path d="M4892 2265 c-45 -20 -67 -73 -52 -121 15 -44 127 -114 183 -114 50 0
87 34 94 85 6 51 -16 81 -91 124 -70 39 -94 44 -134 26z"/>
<path d="M4321 1936 c-38 -21 -50 -54 -51 -139 0 -77 1 -80 34 -113 25 -24 43
-34 66 -34 23 0 42 10 66 34 33 33 34 37 34 110 0 87 -13 122 -51 142 -34 17
-67 17 -98 0z"/>
</g>
</svg>
