<?xml version="1.0" standalone="no"?>
<!DOCTYPE svg PUBLIC "-//W3C//DTD SVG 20010904//EN"
 "http://www.w3.org/TR/2001/REC-SVG-20010904/DTD/svg10.dtd">
<svg version="1.0" xmlns="http://www.w3.org/2000/svg"
 width="512.000000pt" height="512.000000pt" viewBox="0 0 512.000000 512.000000"
 preserveAspectRatio="xMidYMid meet">

<g transform="translate(0.000000,512.000000) scale(0.100000,-0.100000)"
fill="#ffffff" stroke="none">
<path d="M2285 4364 c-22 -2 -96 -9 -165 -15 -486 -43 -920 -182 -1099 -353
-111 -107 -221 -292 -337 -566 l-52 -125 -274 -5 c-242 -4 -276 -7 -300 -23
-28 -20 -58 -73 -58 -105 0 -42 82 -408 96 -430 30 -46 72 -62 166 -62 l87 0
-52 -77 c-59 -87 -108 -197 -134 -300 -26 -103 -23 -332 6 -438 39 -144 125
-299 215 -384 l36 -35 0 -270 c0 -302 5 -324 69 -379 54 -45 85 -49 382 -45
l276 3 36 27 c73 57 81 78 87 228 l5 135 1285 0 1285 0 5 -135 c6 -150 14
-171 87 -228 l36 -27 276 -3 c297 -4 328 0 382 45 64 54 69 78 69 372 l0 263
48 53 c99 108 163 227 203 376 32 117 32 337 1 452 -28 101 -87 226 -146 305
l-46 62 93 0 c99 0 140 15 171 62 15 22 96 387 96 430 0 32 -29 85 -58 105
-24 16 -58 19 -301 23 l-273 5 -52 125 c-114 276 -208 433 -330 556 -70 69
-97 88 -196 137 -224 110 -491 179 -860 223 -127 14 -666 28 -765 18z m735
-408 c332 -41 566 -103 735 -194 92 -50 148 -120 230 -287 59 -119 155 -353
155 -375 0 -6 -582 -10 -1580 -10 -1122 0 -1580 3 -1580 11 0 6 20 61 44 122
96 245 194 427 262 486 145 128 533 229 1019 265 114 9 597 -4 715 -18z
m-1844 -1527 c305 -56 423 -431 204 -649 -149 -150 -391 -150 -540 0 -215 214
-110 580 185 645 76 17 80 17 151 4z m2980 -20 c204 -76 301 -321 207 -520
-96 -204 -334 -280 -538 -172 -49 26 -126 106 -153 159 -73 146 -44 331 71
446 109 108 266 141 413 87z"/>
</g>
</svg>
